<mxfile host="app.diagrams.net" modified="2021-08-13T07:45:16.287Z" agent="5.0 (Windows NT 10.0; Win64; x64) AppleWebKit/537.36 (KHTML, like Gecko) Chrome/92.0.4515.131 Safari/537.36" etag="V-P3cGm53ocvaSSIzk3a" version="14.9.6" type="github">
  <diagram id="wpvFf9zVG4LdVu5zsdtP" name="Page-1">
    <mxGraphModel dx="1422" dy="721" grid="1" gridSize="10" guides="1" tooltips="1" connect="1" arrows="1" fold="1" page="1" pageScale="1" pageWidth="3300" pageHeight="4681" math="0" shadow="0">
      <root>
        <mxCell id="0" />
        <mxCell id="1" parent="0" />
        <mxCell id="q0R2dmcxtaW_saxbstLS-2" value="Actor" style="shape=umlActor;verticalLabelPosition=bottom;verticalAlign=top;html=1;" parent="1" vertex="1">
          <mxGeometry x="230" y="50" width="30" height="60" as="geometry" />
        </mxCell>
        <mxCell id="8R5bz8FbhFHM5lX5Vs1u-2" value="" style="endArrow=none;dashed=1;html=1;dashPattern=1 3;strokeWidth=2;entryX=0.5;entryY=1;entryDx=0;entryDy=0;" edge="1" parent="1" target="8R5bz8FbhFHM5lX5Vs1u-3">
          <mxGeometry width="50" height="50" relative="1" as="geometry">
            <mxPoint x="245" y="680" as="sourcePoint" />
            <mxPoint x="240" y="180" as="targetPoint" />
          </mxGeometry>
        </mxCell>
        <mxCell id="8R5bz8FbhFHM5lX5Vs1u-3" value="请求" style="rounded=1;whiteSpace=wrap;html=1;fillColor=#FFF2CC;" vertex="1" parent="1">
          <mxGeometry x="192.5" y="150" width="105" height="30" as="geometry" />
        </mxCell>
        <mxCell id="8R5bz8FbhFHM5lX5Vs1u-4" value="" style="verticalLabelPosition=bottom;verticalAlign=top;html=1;shape=mxgraph.basic.patternFillRect;fillStyle=diagRev;step=5;fillStrokeWidth=0.2;fillStrokeColor=#dddddd;fillColor=#FFFFFF;" vertex="1" parent="1">
          <mxGeometry x="230" y="210" width="30" height="450" as="geometry" />
        </mxCell>
        <mxCell id="8R5bz8FbhFHM5lX5Vs1u-9" value="" style="endArrow=none;dashed=1;html=1;dashPattern=1 3;strokeWidth=2;entryX=0.5;entryY=1;entryDx=0;entryDy=0;" edge="1" parent="1" target="8R5bz8FbhFHM5lX5Vs1u-10">
          <mxGeometry width="50" height="50" relative="1" as="geometry">
            <mxPoint x="413" y="370" as="sourcePoint" />
            <mxPoint x="407.5" y="180" as="targetPoint" />
          </mxGeometry>
        </mxCell>
        <mxCell id="8R5bz8FbhFHM5lX5Vs1u-10" value="" style="rounded=1;whiteSpace=wrap;html=1;fillColor=#FFF2CC;" vertex="1" parent="1">
          <mxGeometry x="360" y="150" width="105" height="30" as="geometry" />
        </mxCell>
        <mxCell id="8R5bz8FbhFHM5lX5Vs1u-11" value="" style="verticalLabelPosition=bottom;verticalAlign=top;html=1;shape=mxgraph.basic.patternFillRect;fillStyle=diagRev;step=5;fillStrokeWidth=0.2;fillStrokeColor=#dddddd;fillColor=#FFFFFF;" vertex="1" parent="1">
          <mxGeometry x="397.5" y="210" width="32.5" height="120" as="geometry" />
        </mxCell>
        <mxCell id="8R5bz8FbhFHM5lX5Vs1u-12" value="" style="verticalLabelPosition=bottom;verticalAlign=top;html=1;shape=mxgraph.basic.patternFillRect;fillStyle=diagRev;step=5;fillStrokeWidth=0.2;fillStrokeColor=#dddddd;fillColor=#FFFFFF;" vertex="1" parent="1">
          <mxGeometry x="397.5" y="540" width="32.5" height="120" as="geometry" />
        </mxCell>
        <mxCell id="8R5bz8FbhFHM5lX5Vs1u-14" value="" style="rounded=1;whiteSpace=wrap;html=1;fillColor=#FFF2CC;" vertex="1" parent="1">
          <mxGeometry x="360" y="470" width="105" height="30" as="geometry" />
        </mxCell>
        <mxCell id="8R5bz8FbhFHM5lX5Vs1u-15" value="" style="endArrow=none;dashed=1;html=1;dashPattern=1 3;strokeWidth=2;" edge="1" parent="1">
          <mxGeometry width="50" height="50" relative="1" as="geometry">
            <mxPoint x="410" y="670" as="sourcePoint" />
            <mxPoint x="410" y="490" as="targetPoint" />
          </mxGeometry>
        </mxCell>
      </root>
    </mxGraphModel>
  </diagram>
</mxfile>
